<svg width="155" height="46" viewBox="0 0 155 46" fill="none" xmlns="http://www.w3.org/2000/svg">
<path d="M11.7879 5.32048H20.8191L19.8714 4.43312H11.7879V0.582489H7.28789V5.32048H10.8402V5.89047H5.54461V10.5572H4.6868V7.28952H0V11.4446H3.73561V18.8382L4.68334 19.7255V11.4446H5.54115V13.5432H11.5147V11.4867H13.718V5.89047H11.7879V5.32048ZM8.23563 4.43312V1.46985H10.8367V4.42988H8.23563V4.43312ZM3.73561 10.5572H0.947737V8.18012H3.73561V10.5572ZM10.5704 10.5961H8.35669V8.52341H10.5704V10.5961ZM12.7702 6.77783V10.5993H11.5181V7.63604H7.40895V11.4834H10.5669V12.6526H6.49235V6.77459H11.7879H12.7702V6.77783Z" fill="#333333"/>
<path d="M5.41569 34.0081L5.41569 25.2669L4.49889 26.1842L4.49889 34.0081L0.520507 34.0081L0.520507 38.3636L5.41569 38.3636L5.41569 34.9254L6.00458 34.9254L6.00458 40.0509L10.8262 40.0509L10.8262 40.8812L7.45005 40.8812L7.45005 45.4175L11.743 45.4175L11.743 41.8019L19.3818 41.8019L20.2986 40.8846L11.743 40.8846L11.743 40.0543L13.9112 40.0543L13.9112 34.2726L11.7864 34.2726L11.7864 32.14L6.00458 32.14L6.00458 34.0081L5.41569 34.0081ZM4.49889 37.4463L1.43731 37.4463L1.43731 34.9288L4.49554 34.9288L4.49554 37.4463L4.49889 37.4463ZM10.8262 41.8019L10.8262 44.5002L8.3702 44.5002L8.3702 41.8019L10.8262 41.8019ZM10.8663 35.1865L10.8663 37.3292L8.72487 37.3292L8.72487 35.1865L10.8663 35.1865ZM6.92138 33.0573L10.8696 33.0573L10.8696 34.2692L7.80807 34.2692L7.80807 38.2465L11.7831 38.2465L11.7831 35.1899L12.991 35.1899L12.991 39.1336L6.91804 39.1336L6.91804 34.0081L6.91804 33.0573L6.92138 33.0573Z" fill="#333333"/>
<path fill-rule="evenodd" clip-rule="evenodd" d="M154.173 32.2402H79.9562C79.742 32.4842 79.5655 32.7249 79.31 32.9309C76.5337 35.6144 73.1525 34.1095 73.1525 34.1095C70.3837 38.7826 66.176 35.9787 66.176 35.9787C66.176 35.9787 63.1855 40.5315 57.9447 38.4594C54.3456 36.2639 55.2998 33.0544 55.2998 33.0544C55.2998 33.0544 54.8678 33.3396 54.2554 33.7451C52.5235 35.0441 49.0559 33.8243 48.8831 30.9C49.0146 26.756 55.6004 26.1033 55.6004 26.1033C55.6004 26.1033 58.5909 21.7945 62.2726 20.9011C66.8222 19.7225 69.3355 24.722 69.3355 24.722C68.6442 24.478 65.4396 22.8115 62.9263 24.8455C60.8863 27.0823 63.6175 28.9516 63.6175 28.9516C69.1214 31.9614 72.5476 27.9757 72.9797 25.2099C73.5019 22.6911 71.2928 18.9526 66.6531 17.9768C58.9402 16.5954 56.9453 21.5537 56.9453 21.5537C56.9453 21.5537 56.6861 22.0416 56.0813 22.124C55.6492 22.162 55.5628 21.7153 55.5628 21.7153C55.5628 21.7153 55.3036 21.3478 55.4764 20.6983C55.6041 20.2516 55.822 19.5609 55.6492 18.829C55.2134 17.0802 52.8316 16.8774 52.8316 16.8774C48.7591 16.8362 47.9739 19.6845 47.9739 19.6845C48.0641 19.5609 49.0183 18.9114 50.7503 19.4405C52.8729 20.0076 54.9542 24.9691 49.4917 26.1857C44.0781 27.4055 42.4739 22.5676 42.4739 22.5676C42.4739 22.5676 39.6149 23.3818 37.7928 22.6911C33.8068 20.863 32.3341 17.4889 31.2934 15.1697C30.1626 12.8474 26 12.2011 26 12.2011C29.3812 6.26697 35.4485 10.8989 35.4485 10.8989C35.4485 10.8989 37.6162 9.23244 40.5654 10.7754C43.1651 12.4831 43.0787 14.6375 42.6467 15.6925C42.3837 16.304 41.3468 16.4243 41.3468 16.4243C41.0012 16.4243 40.479 16.098 40.5654 15.7749C40.7382 15.2077 40.5203 13.0122 37.6162 13.2529C35.5349 13.9024 35.7078 16.1392 35.8843 16.6683C36.4479 18.2936 38.6607 19.1902 39.4383 19.2694C43.8151 19.5958 44.5514 16.1804 44.5514 16.1804C44.7205 15.1254 44.9835 14.5551 44.9835 14.5551C46.0204 10.8134 49.6645 12.8886 49.6645 12.8886C53.3049 9.18809 56.8589 10.5726 56.8589 10.5726C59.8043 5.2468 64.8348 6.91329 67.5209 8.9473C69.7751 10.4902 69.993 11.8748 69.993 11.8748C73.1562 7.64832 77.6645 11.7955 77.6645 11.7955C77.6645 11.7955 78.4872 12.4862 78.9644 13.2561C79.0959 13.5824 79.3138 13.9056 79.4866 14.3143H154.177V32.2402H154.173Z" fill="url(#paint0_linear_986_2398)" fill-opacity="0.56" style="mix-blend-mode:plus-darker"/>
<defs>
<linearGradient id="paint0_linear_986_2398" x1="26" y1="23" x2="147.457" y2="23" gradientUnits="userSpaceOnUse">
<stop offset="0.235" stop-color="#666666"/>
<stop offset="1" stop-color="#666666" stop-opacity="0"/>
</linearGradient>
</defs>
</svg>
