<svg width="18" height="19" viewBox="0 0 18 19" fill="none" xmlns="http://www.w3.org/2000/svg">
<path d="M0.0719769 10.512C0.00797677 10.192 -0.00802209 9.96797 0.0239784 9.83997C0.055978 9.71197 0.151977 9.51997 0.311977 9.26397L0.311977 9.16797L0.839978 9.02397L0.839978 9.11997L2.95198 7.15197L2.95198 7.05597L3.38398 6.95997L3.38398 7.05597L4.67998 5.95197L4.67998 5.90397C4.83998 5.83997 4.95198 5.77597 5.01598 5.71197C5.07998 5.67997 5.12798 5.64797 5.15998 5.61597C5.28798 5.61597 5.39998 5.58397 5.49598 5.51997C5.59198 5.45597 5.83198 5.26397 6.21598 4.94397C6.75998 4.49597 7.25598 4.14397 7.70398 3.88797C8.05598 3.75997 8.32798 3.64797 8.51998 3.55197C8.67998 3.48797 8.83998 3.42397 8.99998 3.35997C9.22398 3.19997 9.51198 3.00797 9.86398 2.78397C10.216 2.55997 10.584 2.35197 10.968 2.15997C11.352 1.96797 11.72 1.80797 12.072 1.67997C12.424 1.55197 12.728 1.48797 12.984 1.48797C13.624 1.55197 14.104 1.47197 14.424 1.24797C14.776 1.05597 15.096 0.943972 15.384 0.911972C15.576 0.847972 15.704 0.815972 15.768 0.815972C15.8 0.847972 15.864 0.911973 15.96 1.00797L15.96 1.05597C15.96 0.959972 15.992 0.911972 16.056 0.911972C16.088 0.943972 16.232 0.959973 16.488 0.959973L16.488 1.43997C16.04 1.79197 15.688 2.06397 15.432 2.25597C15.144 2.44797 14.968 2.55997 14.904 2.59197C14.648 2.81597 14.36 2.99197 14.04 3.11997C13.88 3.15197 13.72 3.19997 13.56 3.26397C13.4 3.35997 13.096 3.53597 12.648 3.79197C12.296 4.07997 11.896 4.41597 11.448 4.79997C11 5.18397 10.456 5.61597 9.81598 6.09597C9.46398 6.41597 9.17598 6.67197 8.95198 6.86397C8.69598 7.05597 8.53598 7.18397 8.47198 7.24797C8.24798 7.47197 7.99198 7.72797 7.70398 8.01597C7.41598 8.33597 7.15998 8.63997 6.93598 8.92797C6.67998 9.21597 6.47198 9.45597 6.31198 9.64797C6.11998 9.87197 6.02398 9.99997 6.02398 10.032L6.02398 9.98397C5.92798 10.144 5.87998 10.256 5.87998 10.32C5.84798 10.384 5.83198 10.448 5.83198 10.512L6.21598 10.704C6.53598 10.8 6.85598 10.912 7.17598 11.04C7.46398 11.168 7.79998 11.312 8.18398 11.472C9.14398 11.888 10.312 12.32 11.688 12.768C12.232 12.96 12.648 13.104 12.936 13.2C13.224 13.296 13.448 13.36 13.608 13.392C13.736 13.456 13.832 13.504 13.896 13.536C13.96 13.568 14.04 13.616 14.136 13.68C14.424 13.872 14.792 14.144 15.24 14.496C15.656 14.88 16.024 15.392 16.344 16.032L16.344 15.84L16.68 16.032C17.192 16.384 17.608 16.896 17.928 17.568L17.928 17.856L17.64 18.288L17.64 18.384L17.448 18.384L17.448 18.336L17.064 18.384L17.064 18.288C17 18.224 16.888 18.176 16.728 18.144C16.536 18.112 16.36 18.128 16.2 18.192C16.008 18.256 15.832 18.24 15.672 18.144C15.512 18.08 15.304 18.016 15.048 17.952C14.888 17.888 14.584 17.792 14.136 17.664C13.688 17.568 13.176 17.44 12.6 17.28C11.48 17.024 10.712 16.752 10.296 16.464C10.168 16.368 10.024 16.272 9.86398 16.176C9.67198 16.112 9.46398 16.064 9.23998 16.032C8.98398 15.968 8.79198 15.904 8.66398 15.84C8.50398 15.776 8.34398 15.664 8.18398 15.504C7.95998 15.376 7.65598 15.264 7.27198 15.168C7.07998 15.168 6.71198 14.992 6.16798 14.64C6.00798 14.544 5.81598 14.464 5.59198 14.4C5.36798 14.336 5.17598 14.32 5.01598 14.352C4.85598 14.384 4.74398 14.384 4.67998 14.352C4.61598 14.32 4.45598 14.24 4.19998 14.112C4.03998 13.984 3.87998 13.888 3.71998 13.824C3.55998 13.792 3.38398 13.744 3.19198 13.68L2.18398 13.104C2.11998 13.072 1.99198 12.976 1.79998 12.816C1.60798 12.688 1.33598 12.496 0.983978 12.24L0.983978 12.192C0.823978 11.904 0.615979 11.68 0.359979 11.52C0.327978 11.488 0.295978 11.392 0.263978 11.232C0.199978 11.104 0.135977 10.864 0.0719769 10.512Z" fill="white"/>
</svg>
