<svg width="16" height="15" viewBox="0 0 16 15" fill="none" xmlns="http://www.w3.org/2000/svg">
<path d="M13.5417 0.375C13.9616 0.375 14.3643 0.541815 14.6613 0.838748C14.9582 1.13568 15.125 1.53841 15.125 1.95833V13.0417C15.125 13.4616 14.9582 13.8643 14.6613 14.1613C14.3643 14.4582 13.9616 14.625 13.5417 14.625H2.45833C2.03841 14.625 1.63568 14.4582 1.33875 14.1613C1.04181 13.8643 0.875 13.4616 0.875 13.0417V1.95833C0.875 1.53841 1.04181 1.13568 1.33875 0.838748C1.63568 0.541815 2.03841 0.375 2.45833 0.375H13.5417ZM13.1458 12.6458V8.45C13.1458 7.76552 12.8739 7.10908 12.3899 6.62508C11.9059 6.14108 11.2495 5.86917 10.565 5.86917C9.89208 5.86917 9.10833 6.28083 8.72833 6.89833V6.01958H6.51958V12.6458H8.72833V8.74292C8.72833 8.13333 9.21917 7.63458 9.82875 7.63458C10.1227 7.63458 10.4046 7.75135 10.6125 7.95921C10.8203 8.16706 10.9371 8.44897 10.9371 8.74292V12.6458H13.1458ZM3.94667 4.77667C4.2994 4.77667 4.6377 4.63654 4.88712 4.38712C5.13654 4.1377 5.27667 3.7994 5.27667 3.44667C5.27667 2.71042 4.68292 2.10875 3.94667 2.10875C3.59183 2.10875 3.25152 2.24971 3.00062 2.50062C2.74971 2.75152 2.60875 3.09183 2.60875 3.44667C2.60875 4.18292 3.21042 4.77667 3.94667 4.77667ZM5.04708 12.6458V6.01958H2.85417V12.6458H5.04708Z" fill="#333333"/>
</svg>
