<svg width="18" height="19" viewBox="0 0 18 19" fill="none" xmlns="http://www.w3.org/2000/svg">
<path d="M17.928 8.48803C17.992 8.80803 18.008 9.03203 17.976 9.16003C17.944 9.28803 17.848 9.48003 17.688 9.73603V9.83203L17.16 9.97603V9.88003L15.048 11.848V11.944L14.616 12.04V11.944L13.32 13.048V13.096C13.16 13.16 13.048 13.224 12.984 13.288C12.92 13.32 12.872 13.352 12.84 13.384C12.712 13.384 12.6 13.416 12.504 13.48C12.408 13.544 12.168 13.736 11.784 14.056C11.24 14.504 10.744 14.856 10.296 15.112C9.94402 15.24 9.67202 15.352 9.48002 15.448C9.32002 15.512 9.16002 15.576 9.00002 15.64C8.77602 15.8 8.48802 15.992 8.13602 16.216C7.78402 16.44 7.41602 16.648 7.03202 16.84C6.64802 17.032 6.28002 17.192 5.92802 17.32C5.57602 17.448 5.27202 17.512 5.01602 17.512C4.37602 17.448 3.89602 17.528 3.57602 17.752C3.22402 17.944 2.90402 18.056 2.61602 18.088C2.42402 18.152 2.29602 18.184 2.23202 18.184C2.20002 18.152 2.13602 18.088 2.04002 17.992V17.944C2.04002 18.04 2.00802 18.088 1.94402 18.088C1.91202 18.056 1.76802 18.04 1.51202 18.04V17.56C1.96002 17.208 2.31202 16.936 2.56802 16.744C2.85602 16.552 3.03202 16.44 3.09602 16.408C3.35202 16.184 3.64002 16.008 3.96002 15.88C4.12002 15.848 4.28002 15.8 4.44002 15.736C4.60002 15.64 4.90402 15.464 5.35202 15.208C5.70402 14.92 6.10402 14.584 6.55202 14.2C7.00002 13.816 7.54402 13.384 8.18402 12.904C8.53602 12.584 8.82402 12.328 9.04802 12.136C9.30402 11.944 9.46402 11.816 9.52802 11.752C9.75202 11.528 10.008 11.272 10.296 10.984C10.584 10.664 10.84 10.36 11.064 10.072C11.32 9.78403 11.528 9.54403 11.688 9.35203C11.88 9.12803 11.976 9.00003 11.976 8.96803V9.01603C12.072 8.85603 12.12 8.74403 12.12 8.68003C12.152 8.61603 12.168 8.55203 12.168 8.48803L11.784 8.29603C11.464 8.20003 11.144 8.08803 10.824 7.96003C10.536 7.83203 10.2 7.68803 9.81602 7.52803C8.85602 7.11203 7.68802 6.68003 6.31202 6.23203C5.76802 6.04003 5.35202 5.89603 5.06402 5.80003C4.77602 5.70403 4.55202 5.64003 4.39202 5.60803C4.26402 5.54403 4.16802 5.49603 4.10402 5.46403C4.04002 5.43203 3.96002 5.38403 3.86402 5.32003C3.57602 5.12803 3.20802 4.85603 2.76002 4.50403C2.34402 4.12003 1.97602 3.60803 1.65602 2.96803V3.16003L1.32002 2.96803C0.808022 2.61603 0.392021 2.10403 0.0720215 1.43203V1.14403L0.360022 0.712027V0.616028H0.552022V0.664027L0.936022 0.616028V0.712027C1.00002 0.776028 1.11202 0.824028 1.27202 0.856028C1.46402 0.888027 1.64002 0.872027 1.80002 0.808028C1.99202 0.744027 2.16802 0.760027 2.32802 0.856028C2.48802 0.920027 2.69602 0.984027 2.95202 1.04803C3.11202 1.11203 3.41602 1.20803 3.86402 1.33603C4.31202 1.43203 4.82402 1.56003 5.40002 1.72003C6.52002 1.97603 7.28802 2.24803 7.70402 2.53603C7.83202 2.63203 7.97602 2.72803 8.13602 2.82403C8.32802 2.88803 8.53602 2.93603 8.76002 2.96803C9.01602 3.03203 9.20802 3.09603 9.33602 3.16003C9.49602 3.22403 9.65602 3.33603 9.81602 3.49603C10.04 3.62403 10.344 3.73603 10.728 3.83203C10.92 3.83203 11.288 4.00803 11.832 4.36003C11.992 4.45603 12.184 4.53603 12.408 4.60003C12.632 4.66403 12.824 4.68003 12.984 4.64803C13.144 4.61603 13.256 4.61603 13.32 4.64803C13.384 4.68003 13.544 4.76003 13.8 4.88803C13.96 5.01603 14.12 5.11203 14.28 5.17603C14.44 5.20803 14.616 5.25603 14.808 5.32003L15.816 5.89603C15.88 5.92803 16.008 6.02403 16.2 6.18403C16.392 6.31203 16.664 6.50403 17.016 6.76003V6.80803C17.176 7.09603 17.384 7.32003 17.64 7.48003C17.672 7.51203 17.704 7.60803 17.736 7.76803C17.8 7.89603 17.864 8.13603 17.928 8.48803Z" fill="white"/>
</svg>
