<svg width="10" height="10" viewBox="0 0 10 10" fill="none" xmlns="http://www.w3.org/2000/svg">
<path d="M5.45603 0.55198C5.29603 0.51998 5.18403 0.511981 5.12003 0.527981C5.05603 0.543981 4.96003 0.59198 4.83203 0.67198L4.78403 0.67198L4.71203 0.935981L4.76003 0.935981L3.77603 1.99198L3.72803 1.99198L3.68003 2.20798L3.72803 2.20798L3.17603 2.85598L3.15203 2.85598C3.12003 2.93598 3.08803 2.99198 3.05603 3.02398C3.04003 3.05598 3.02403 3.07998 3.00803 3.09598C3.00803 3.15998 2.99203 3.21598 2.96003 3.26398C2.92803 3.31198 2.83203 3.43198 2.67203 3.62398C2.44803 3.89598 2.27203 4.14398 2.14403 4.36798C2.08003 4.54398 2.02403 4.67998 1.97603 4.77598C1.94403 4.85598 1.91203 4.93598 1.88003 5.01598C1.80003 5.12798 1.70403 5.27198 1.59203 5.44798C1.48003 5.62398 1.37603 5.80798 1.28003 5.99998C1.18403 6.19198 1.10403 6.37598 1.04003 6.55198C0.976028 6.72798 0.944029 6.87998 0.944029 7.00798C0.976029 7.32798 0.936029 7.56798 0.824029 7.72798C0.728029 7.90398 0.672029 8.06398 0.656029 8.20798C0.624029 8.30398 0.608028 8.36798 0.608028 8.39998C0.624028 8.41598 0.656029 8.44798 0.704029 8.49598L0.728028 8.49598C0.680028 8.49598 0.656029 8.51198 0.656029 8.54398C0.672029 8.55998 0.680029 8.63198 0.680029 8.75998L0.920029 8.75998C1.09603 8.53598 1.23203 8.35998 1.32803 8.23198C1.42403 8.08798 1.48003 7.99998 1.49603 7.96798C1.60803 7.83998 1.69603 7.69598 1.76003 7.53598C1.77603 7.45598 1.80003 7.37598 1.83203 7.29598C1.88003 7.21598 1.96803 7.06398 2.09603 6.83998C2.24003 6.66398 2.40803 6.46398 2.60003 6.23998C2.79203 6.01598 3.00803 5.74398 3.24803 5.42398C3.40803 5.24798 3.53603 5.10398 3.63203 4.99198C3.72803 4.86398 3.79203 4.78398 3.82403 4.75198C3.93603 4.63998 4.06403 4.51198 4.20803 4.36798C4.36803 4.22398 4.52003 4.09598 4.66403 3.98398C4.80803 3.85598 4.92803 3.75198 5.02403 3.67198C5.13603 3.57598 5.20003 3.52798 5.21603 3.52798L5.19203 3.52798C5.27203 3.47998 5.32803 3.45598 5.36003 3.45598C5.39203 3.43998 5.42403 3.43198 5.45603 3.43198L5.55203 3.62398C5.60003 3.78398 5.65603 3.94398 5.72003 4.10398C5.78403 4.24798 5.85603 4.41598 5.93603 4.60798C6.14403 5.08798 6.36003 5.67198 6.58403 6.35998C6.68003 6.63198 6.75203 6.83998 6.80003 6.98398C6.84803 7.12798 6.88003 7.23998 6.89603 7.31998C6.92803 7.38398 6.95203 7.43198 6.96803 7.46398C6.98403 7.49598 7.00803 7.53598 7.04003 7.58398C7.13603 7.72798 7.27203 7.91198 7.44803 8.13598C7.64003 8.34398 7.89603 8.52798 8.21603 8.68798L8.12003 8.68798L8.21603 8.85598C8.39203 9.11198 8.64803 9.31998 8.98403 9.47998L9.12803 9.47998L9.34403 9.33598L9.39203 9.33598L9.39203 9.23998L9.36803 9.23998L9.39203 9.04798L9.34403 9.04798C9.31203 9.01598 9.28803 8.95998 9.27203 8.87998C9.25603 8.78398 9.26403 8.69598 9.29603 8.61598C9.32803 8.51998 9.32003 8.43198 9.27203 8.35198C9.24003 8.27198 9.20803 8.16798 9.17603 8.03998C9.14403 7.95998 9.09603 7.80798 9.03203 7.58398C8.98403 7.35998 8.92003 7.10398 8.84003 6.81598C8.71203 6.25598 8.57603 5.87198 8.43203 5.66398C8.38403 5.59998 8.33603 5.52798 8.28803 5.44798C8.25603 5.35198 8.23203 5.24798 8.21603 5.13598C8.18403 5.00798 8.15203 4.91198 8.12003 4.84798C8.08803 4.76798 8.03203 4.68798 7.95203 4.60798C7.88803 4.49598 7.83203 4.34398 7.78403 4.15198C7.78403 4.05598 7.69603 3.87198 7.52003 3.59998C7.47203 3.51998 7.43203 3.42398 7.40003 3.31198C7.36803 3.19998 7.36003 3.10398 7.37603 3.02398C7.39203 2.94398 7.39203 2.88798 7.37603 2.85598C7.36003 2.82398 7.32003 2.74398 7.25603 2.61598C7.19203 2.53598 7.14403 2.45598 7.11203 2.37598C7.09603 2.29598 7.07203 2.20798 7.04003 2.11198L6.75203 1.60798C6.73603 1.57598 6.68803 1.51198 6.60803 1.41598C6.54403 1.31998 6.44803 1.18398 6.32003 1.00798L6.29603 1.00798C6.15203 0.927981 6.04003 0.823981 5.96003 0.695981C5.94403 0.679981 5.89603 0.663981 5.81603 0.647981C5.75203 0.615981 5.63203 0.58398 5.45603 0.55198Z" fill="#333333"/>
</svg>
