<svg width="16" height="13" viewBox="0 0 16 13" fill="none" xmlns="http://www.w3.org/2000/svg">
<path d="M6.41665 8.87504L10.5254 6.50004L6.41665 4.12504V8.87504ZM15.5683 2.67629C15.6712 3.04837 15.7425 3.54712 15.79 4.18046C15.8454 4.81379 15.8691 5.36004 15.8691 5.83504L15.9166 6.50004C15.9166 8.23379 15.79 9.50837 15.5683 10.3238C15.3704 11.0363 14.9112 11.4955 14.1987 11.6934C13.8266 11.7963 13.1458 11.8675 12.1008 11.915C11.0716 11.9705 10.1296 11.9942 9.25873 11.9942L7.99998 12.0417C4.6829 12.0417 2.61665 11.915 1.80123 11.6934C1.08873 11.4955 0.629563 11.0363 0.431646 10.3238C0.32873 9.95171 0.25748 9.45296 0.20998 8.81962C0.154563 8.18629 0.130813 7.64004 0.130813 7.16504L0.083313 6.50004C0.083313 4.76629 0.20998 3.49171 0.431646 2.67629C0.629563 1.96379 1.08873 1.50462 1.80123 1.30671C2.17331 1.20379 2.85415 1.13254 3.89915 1.08504C4.92831 1.02962 5.8704 1.00587 6.74123 1.00587L7.99998 0.958374C11.3171 0.958374 13.3833 1.08504 14.1987 1.30671C14.9112 1.50462 15.3704 1.96379 15.5683 2.67629Z" fill="#333333"/>
</svg>
